<?xml version="1.0" encoding="UTF-8" standalone="no"?>
<!-- Created with Inkscape (http://www.inkscape.org/) -->

<svg
   xmlns:dc="http://purl.org/dc/elements/1.1/"
   xmlns:cc="http://creativecommons.org/ns#"
   xmlns:rdf="http://www.w3.org/1999/02/22-rdf-syntax-ns#"
   xmlns:svg="http://www.w3.org/2000/svg"
   xmlns="http://www.w3.org/2000/svg"
   xmlns:sodipodi="http://sodipodi.sourceforge.net/DTD/sodipodi-0.dtd"
   xmlns:inkscape="http://www.inkscape.org/namespaces/inkscape"
   width="210mm"
   height="297mm"
   viewBox="0 0 744.09448819 1052.3622047"
   id="svg4581"
   version="1.1"
   inkscape:version="0.91 r13725"
   sodipodi:docname="me-marker.svg">
  <defs
     id="defs4583" />
  <sodipodi:namedview
     id="base"
     pagecolor="#ffffff"
     bordercolor="#666666"
     borderopacity="1.0"
     inkscape:pageopacity="0.0"
     inkscape:pageshadow="2"
     inkscape:zoom="32.569338"
     inkscape:cx="19.120745"
     inkscape:cy="1018.0895"
     inkscape:document-units="px"
     inkscape:current-layer="layer1"
     showgrid="false"
     inkscape:window-width="1440"
     inkscape:window-height="856"
     inkscape:window-x="0"
     inkscape:window-y="18"
     inkscape:window-maximized="1" />
  <metadata
     id="metadata4586">
    <rdf:RDF>
      <cc:Work
         rdf:about="">
        <dc:format>image/svg+xml</dc:format>
        <dc:type
           rdf:resource="http://purl.org/dc/dcmitype/StillImage" />
        <dc:title></dc:title>
      </cc:Work>
    </rdf:RDF>
  </metadata>
  <g
     inkscape:label="Layer 1"
     inkscape:groupmode="layer"
     id="layer1">
    <path
       inkscape:connector-curvature="0"
       style="opacity:1;fill:#000000;fill-opacity:1;stroke:none;stroke-width:0.30000001;stroke-linecap:round;stroke-linejoin:round;stroke-miterlimit:4;stroke-dasharray:none;stroke-opacity:1"
       d="m 20.904667,2.9825318 c -0.788489,0 -1.423279,0.634791 -1.423279,1.423279 l 0,2.04039 -2.226217,0 c -1.191682,0 -2.177987,0.844325 -2.398172,1.969662 l -5.6658441,0 -9.47e-4,0 c -0.0019,-1.4e-5 -0.004,-4.73e-4 -0.006,-4.73e-4 -0.254095,0 -0.507925,0.09744 -0.702625,0.292143 l -3.380923,3.3809252 c -0.01744,0.01744 -0.02989,0.03758 -0.04576,0.05593 l -1.678445,0 c -0.504683,0 -0.911102,0.405955 -0.911102,0.910639 l 0,17.056702 c 0,0.145001 0.03684,0.279784 0.09661,0.401238 0.06565,0.170439 0.166261,0.330818 0.304164,0.468724 l 7.3780331,7.378033 c 0.341452,0.341452 0.817685,0.459772 1.254096,0.358246 l 5.167534,0 7.034115,0 5.167538,0 c 0.436405,0.101526 0.912638,-0.0168 1.254095,-0.358246 l 7.378031,-7.378033 c 0.137905,-0.137906 0.238515,-0.298283 0.304164,-0.468724 0.05977,-0.121454 0.09661,-0.256237 0.09661,-0.401238 l 0,-17.056702 c 0,-0.504684 -0.406419,-0.910639 -0.911103,-0.910639 l -1.678441,0 c -0.01588,-0.01834 -0.02832,-0.03849 -0.04576,-0.05593 L 31.884095,8.7075328 c -0.1947,-0.1947 -0.448533,-0.292143 -0.702626,-0.292143 -0.0019,0 -0.0041,4.73e-4 -0.006,4.73e-4 l -9.47e-4,0 -4.222225,0 c -0.220196,-1.125337 -1.206502,-1.969662 -2.398184,-1.969662 l -2.226215,0 0,-1.05394 13.034634,-0.410944 c 0.120375,-0.0038 0.21726,-0.09683 0.21726,-0.217259 l 0,-0.751163 c 0,-0.120432 -0.09689,-0.213464 -0.21726,-0.217257 L 21.881361,3.3708238 c -0.254614,-0.240252 -0.597424,-0.388292 -0.976742,-0.388292 z m 15.156839,0.798775 c -0.123335,2e-6 -0.222343,0.09901 -0.222343,0.222343 l 0,0.769654 c 0,0.123334 0.09901,0.222337 0.222343,0.222344 l 0.930055,0 c 0.123334,0 0.222872,-0.09895 0.222808,-0.222344 l 0,-0.769654 c 0,-0.123333 -0.09954,-0.222279 -0.222808,-0.222343 z M 5.8153159,6.9921228 c -0.09471,-0.004 -0.191524,0.01953 -0.278277,0.07304 -0.231379,0.142638 -0.303075,0.445846 -0.160403,0.677202 0.0035,0.0054 0.0073,0.01046 0.0111,0.01572 l -0.0046,0.0032 1.052089,1.393231 c 0.09882,0.149935 0.299144,0.194411 0.452082,0.100309 l 0,-4.73e-4 c 0.152785,-0.09436 0.202752,-0.292704 0.113254,-0.448386 l -0.743767,-1.492618 c -0.0054,-0.01456 -0.01181,-0.02852 -0.01848,-0.04253 l -0.01434,-0.03375 -0.0024,0.0014 c -0.0024,-0.0043 -0.0049,-0.0088 -0.0074,-0.01295 -0.08915,-0.144613 -0.241074,-0.226862 -0.398923,-0.233437 z m 28.8645141,0 c -0.157852,0.0066 -0.309778,0.08882 -0.398926,0.233436 -0.0026,0.0042 -0.0049,0.0087 -0.0074,0.01295 l -0.0024,-0.0014 -0.01434,0.03374 c -0.0067,0.01401 -0.01266,0.02798 -0.01803,0.04253 l -0.744228,1.492617 c -0.0895,0.155682 -0.03907,0.354027 0.113714,0.448386 l 0,4.73e-4 c 0.152939,0.0941 0.352798,0.04963 0.451622,-0.100309 l 4.73e-4,0 1.052091,-1.393231 -0.0046,-0.0032 c 0.0038,-0.0053 0.0076,-0.01027 0.0111,-0.01572 0.14267,-0.231355 0.07052,-0.534563 -0.160865,-0.677202 -0.08676,-0.0535 -0.183564,-0.07698 -0.278276,-0.07304 z M 7.4655599,8.4708708 c -0.03443,0 -0.06884,0.0129 -0.09522,0.03929 l -0.26672,0.266719 c 0.097858,0.1751994 0.067672,0.3940494 -0.07396,0.536216 l -4.74e-4,0 c -0.1419786,0.14156 -0.3605657,0.1719234 -0.535752,0.07442 l -0.229739,0.229739 c -0.05277,0.05277 -0.05277,0.137674 0,0.19045 l 0.310173,0.3101732 1.297546,-1.2975492 -0.310634,-0.31017 c -0.02639,-0.02639 -0.06079,-0.03929 -0.09523,-0.03929 z m 25.5640251,0 c -0.03443,0 -0.06884,0.0129 -0.09523,0.03929 l -0.310173,0.31017 1.297085,1.2975492 0.310634,-0.3101732 c 0.05277,-0.05278 0.05277,-0.137678 0,-0.19045 l -0.229739,-0.229739 c -0.175298,0.097739 -0.394158,0.067364 -0.536213,-0.07442 -0.141785,-0.1420556 -0.17216,-0.3609173 -0.07442,-0.536216 L 33.12481,8.5101628 c -0.02639,-0.02639 -0.06079,-0.03929 -0.09522,-0.039292 z M 3.9528949,8.7865918 c -0.125839,0.0053 -0.249691,0.0589 -0.341606,0.159014 -0.183867,0.200186 -0.170632,0.511395 0.02958,0.695229 0.0049,0.0042 0.0096,0.0085 0.01479,0.01247 l -0.0037,0.0037 1.391385,1.0548632 4.73e-4,0 c 0.135874,0.117409 0.340205,0.105334 0.461791,-0.02681 0.121371,-0.132353 0.115975,-0.337239 -0.01247,-0.462717 L 4.3712469,8.9885858 c -0.0091,-0.01254 -0.01889,-0.02441 -0.02912,-0.03606 l -0.02312,-0.02866 -0.0019,0.0024 c -0.0035,-0.0035 -0.0071,-0.0068 -0.01063,-0.01018 -0.100095,-0.09193 -0.227787,-0.134786 -0.353625,-0.12943 z m 32.5898191,0 c -0.125837,-0.0053 -0.253996,0.0375 -0.354088,0.129429 -0.0036,0.0034 -0.0066,0.0067 -0.01018,0.01018 l -0.0024,-0.0024 -0.02265,0.02866 c -0.01023,0.01164 -0.02,0.02353 -0.02912,0.03606 l -1.121891,1.2337552 c -0.128462,0.125478 -0.13431,0.330364 -0.01295,0.462717 0.121586,0.132144 0.326378,0.144219 0.462253,0.02681 l 1.391384,-1.0548632 -0.0037,-0.0037 c 0.0052,-0.004 0.01034,-0.0082 0.01524,-0.01247 0.200219,-0.183834 0.213454,-0.495043 0.02958,-0.695229 -0.09191,-0.100109 -0.215763,-0.153659 -0.341603,-0.159015 z M 6.0261019,9.9403768 c -0.03443,0 -0.06884,0.01337 -0.09522,0.03975 l -0.267184,0.2667202 c 0.097621,0.175087 0.067447,0.393663 -0.07396,0.535752 l 0,4.73e-4 c -0.1421663,0.141631 -0.3610151,0.171817 -0.536214,0.07396 l -0.229741,0.229741 c -0.05277,0.05277 -0.05277,0.137671 0,0.190447 l 0.310634,0.310173 1.297085,-1.297084 -0.310171,-0.3101712 c -0.02639,-0.02639 -0.06079,-0.03975 -0.09523,-0.03975 z m 28.4434031,0 c -0.03443,0 -0.06883,0.01337 -0.09522,0.03975 l -0.310173,0.3101712 1.297085,1.297084 0.31017,-0.310173 c 0.05278,-0.05278 0.05278,-0.137675 0,-0.190446 l -0.229275,-0.229742 c -0.175199,0.09786 -0.394049,0.06767 -0.536216,-0.07396 l -4.73e-4,-4.73e-4 c -0.141407,-0.142089 -0.171581,-0.360665 -0.07396,-0.535752 L 34.564721,9.9801158 c -0.02639,-0.02639 -0.06079,-0.03975 -0.09522,-0.03975 z m -15.936664,0.3013882 3.795105,0 c 0.808705,0 1.459797,0.651092 1.459797,1.459798 0,0.808705 -0.651092,1.459797 -1.459797,1.459797 l -3.795105,0 c -0.808705,0 -1.459798,-0.651092 -1.459798,-1.459797 0,-0.808706 0.651093,-1.459798 1.459798,-1.459798 z m -8.004848,2.749486 c 3.357371,5.4e-5 6.079045,2.721729 6.079098,6.0791 -5.3e-5,3.357372 -2.721726,6.079047 -6.079098,6.079101 -3.357553,2.02e-4 -6.0795095,-2.721548 -6.0795621,-6.079101 5.32e-5,-3.357553 2.7220094,-6.079302 6.0795621,-6.0791 z m 18.811881,0 c 3.357372,5.3e-5 6.079047,2.721728 6.0791,6.0791 -5.3e-5,3.357373 -2.721727,6.079048 -6.0791,6.079101 -3.357373,-5.2e-5 -6.079049,-2.721728 -6.079102,-6.079101 5.3e-5,-3.357373 2.721729,-6.079048 6.079102,-6.0791 z m -18.811881,0.501084 c -3.0807709,-1.03e-4 -5.5783268,2.497245 -5.5784801,5.578016 -1.025e-4,3.080952 2.4975284,5.578582 5.5784801,5.578479 3.080771,-1.53e-4 5.578119,-2.497708 5.578017,-5.578479 -1.53e-4,-3.08059 -2.497427,-5.577863 -5.578017,-5.578016 z m 18.811881,0 c -3.08059,1.52e-4 -5.577865,2.497426 -5.578018,5.578016 -1.02e-4,3.080771 2.497247,5.578327 5.578018,5.578479 3.080951,1.02e-4 5.57858,-2.497528 5.578478,-5.578479 -1.53e-4,-3.08077 -2.497708,-5.578118 -5.578478,-5.578016 z m -18.811881,0.996156 c 2.530453,9.3e-5 4.581766,2.051407 4.581859,4.58186 1.63e-4,2.530633 -2.051226,4.58223 -4.581859,4.582323 -2.5308143,1.63e-4 -4.5824852,-2.051509 -4.5823221,-4.582323 9.26e-5,-2.530634 2.0516886,-4.582023 4.5823221,-4.58186 z m 18.811881,0 c 2.530633,-1.63e-4 4.582229,2.051227 4.582322,4.58186 1.63e-4,2.530814 -2.051508,4.582486 -4.582322,4.582323 -2.530634,-9.3e-5 -4.582023,-2.051689 -4.58186,-4.582323 9.3e-5,-2.530453 2.051407,-4.581767 4.58186,-4.58186 z m -12.066212,2.840551 1.252247,0 c 0.08817,0 0.159014,0.07085 0.159014,0.159014 l 0,2.945019 c 0,0.08816 -0.07085,0.159017 -0.159014,0.159017 l -1.252247,0 c -0.08816,0 -0.159014,-0.07085 -0.159014,-0.159017 l 0,-2.945019 c 0,-0.08816 0.07085,-0.159014 0.159014,-0.159014 z m 4.068295,0 1.252247,0 c 0.08816,0 0.159014,0.07085 0.159014,0.159014 l 0,2.945019 c 0,0.08816 -0.07085,0.159017 -0.159014,0.159017 l -1.252247,0 c -0.08816,0 -0.159475,-0.07085 -0.159475,-0.159017 l 0,-2.945019 c 0,-0.08816 0.07131,-0.159014 0.159475,-0.159014 z m -10.813964,0.163636 c -0.8712237,6.4e-5 -1.5774027,0.706449 -1.5772111,1.577673 4.094e-4,0.475439 0.2152495,0.925329 0.584752,1.224511 l 0.09245,-0.597694 4.73e-4,0 c 0.014702,-0.486363 0.4129611,-0.873162 0.8995461,-0.87366 0.48659,2.42e-4 0.885054,0.386836 0.900007,0.873196 l 0.09014,0.600007 c 0.370698,-0.299226 0.586298,-0.749964 0.586601,-1.22636 1.92e-4,-0.871043 -0.705705,-1.577354 -1.576758,-1.577673 z m 18.811881,0 c -0.871223,6.4e-5 -1.577402,0.70645 -1.57721,1.577673 3.03e-4,0.476396 0.215902,0.927133 0.586599,1.22636 l 0.0906,-0.600007 c 0.01495,-0.48636 0.413417,-0.872954 0.900007,-0.873196 0.486585,4.99e-4 0.884843,0.387297 0.899545,0.87366 l 4.74e-4,0 0.09199,0.597694 c 0.369675,-0.299092 0.58469,-0.748995 0.585212,-1.224511 1.92e-4,-0.871223 -0.705987,-1.577609 -1.577217,-1.577673 z m -11.846178,0.756711 c -0.09909,0 -0.178893,0.0798 -0.178893,0.178892 l 0,1.064571 c 0,0.09909 0.0798,0.17889 0.178893,0.17889 l 0.812179,0 c 0.09909,0 0.178893,-0.0798 0.178893,-0.17889 l 0,-1.064571 c 0,-0.09909 -0.0798,-0.178892 -0.178893,-0.178892 z m 4.068295,0 c -0.09909,0 -0.178893,0.0798 -0.178893,0.178892 l 0,1.064571 c 0,0.09909 0.0798,0.17889 0.178893,0.17889 l 0.812179,0 c 0.09909,0 0.178893,-0.0798 0.178893,-0.17889 l 0,-1.064571 c 0,-0.09909 -0.0798,-0.178892 -0.178893,-0.178892 z m 7.77696,0.788143 c -0.393918,7.36e-4 -0.716156,0.31397 -0.728052,0.707709 l -9.47e-4,0 -0.360558,2.345013 0.01202,0 c -0.0011,0.01416 -0.0019,0.02834 -0.0024,0.04253 -1.95e-4,0.596526 0.483299,1.080227 1.079825,1.080287 0.596706,1.94e-4 1.080481,-0.483581 1.080286,-1.080287 -3.05e-4,-0.01079 -7.72e-4,-0.02158 -0.0014,-0.03236 l 0.0065,0 -0.01202,-0.07904 c -0.0037,-0.03382 -0.0089,-0.06745 -0.01572,-0.100771 l -0.328664,-2.175368 c -0.01191,-0.394095 -0.334697,-0.707469 -0.728972,-0.707709 z m -18.811883,0.02589 c -0.394097,4.88e-4 -0.7166107,0.313794 -0.7285111,0.707712 l -4.73e-4,0 -0.360556,2.345013 0.01202,0 c -0.00108,0.01416 -0.00188,0.02834 -0.0024,0.04253 -1.943e-4,0.596526 0.4832991,1.080226 1.0798251,1.080286 0.596706,1.94e-4 1.08048,-0.48358 1.080286,-1.080286 -3.05e-4,-0.01079 -7.72e-4,-0.02158 -0.0014,-0.03236 l 0.0065,0 -0.01202,-0.07905 c -0.0036,-0.03397 -0.0089,-0.06776 -0.01572,-0.101233 L 11.25596,19.770665 c -0.01215,-0.393916 -0.334872,-0.707018 -0.728975,-0.707248 z m -1.5984751,6.893592 2.9450191,0 c 0.08817,0 0.159017,0.07085 0.159017,0.159014 l 0,1.252246 c 0,0.08816 -0.07085,0.159476 -0.159017,0.159476 l -2.9450191,0 c -0.08816,0 -0.159014,-0.07131 -0.159014,-0.159476 l 0,-1.252246 c 0,-0.08817 0.07085,-0.159017 0.159014,-0.159014 z m 19.0656591,0 2.945019,0 c 0.08817,0 0.159017,0.07085 0.159017,0.159014 l 0,1.252246 c 0,0.08816 -0.07085,0.159476 -0.159017,0.159476 l -2.945019,0 c -0.08816,0 -0.159014,-0.07131 -0.159014,-0.159476 l 0,-1.252246 c 0,-0.08817 0.07085,-0.159017 0.159014,-0.159014 z M 9.8688179,26.15763 c -0.09909,0 -0.178892,0.07934 -0.178892,0.178431 l 0,0.81218 c 0,0.09909 0.0798,0.178892 0.178892,0.178892 l 1.0645721,0 c 0.09909,0 0.178892,-0.0798 0.178892,-0.178892 l 0,-0.81218 c 0,-0.09909 -0.0798,-0.178431 -0.178892,-0.178431 z m 19.0656591,0 c -0.09909,0 -0.178892,0.07934 -0.178892,0.178431 l 0,0.81218 c 0,0.09909 0.0798,0.178892 0.178892,0.178892 l 1.064572,0 c 0.09909,0 0.178892,-0.0798 0.178892,-0.178892 l 0,-0.81218 c 0,-0.09909 -0.0798,-0.178431 -0.178892,-0.178431 z m -16.577347,2.150867 15.967635,0 c 0.550693,0 0.993846,0.443151 0.993846,0.993846 l 0,6.476175 c 0,0.550693 -0.443153,0.993846 -0.993846,0.993846 l -15.967635,0 c -0.550693,0 -0.993846,-0.443153 -0.993846,-0.993846 l 0,-6.476175 c 0,-0.550695 0.443153,-0.993846 0.993846,-0.993846 z"
       id="rect4264"
       sodipodi:nodetypes="cscscccssscssscsscccccscssscssssccscccsssccccsscscscccccccccccccccccccccccccccccccccccccccccscccccccscccccccsccccccccccccccccccccccccccccccccccccccscccsccccccscccccsccsssssssccccccccccccccccccccccccccccccssssssssssssssssssccccccccccccccccccccsssssssssssssssssscccccccccccccccccccccccccccccccsssssssccssssssscsssssssssssssssssssssssssss" />
  </g>
</svg>
